<!-- icon666.com - MILLIONS vector ICONS FREE --><svg id="Layer_1" viewBox="0 0 512 512" xmlns="http://www.w3.org/2000/svg" xmlns:xlink="http://www.w3.org/1999/xlink" data-name="Layer 1"><linearGradient id="GradientFill_1" gradientUnits="userSpaceOnUse" x1="256.251" x2="256.252" y1="512.275" y2=".277"><stop offset="0" stop-color="#6c54a3"></stop><stop offset="1" stop-color="#00b1d2"></stop></linearGradient><path d="m256.254.277c141.376 0 256 114.587 256 255.963s-114.623 256.035-256 256.035c-141.391 0-256-114.658-256-256.035s114.609-255.963 256-255.963zm-89.363 131.137a5.074 5.074 0 0 0 5.079 5.08h168.562a5.079 5.079 0 1 0 0-10.158h-168.562a5.073 5.073 0 0 0 -5.079 5.078zm178.72 25.621a5.073 5.073 0 0 0 -5.079-5.078h-61.839a5.079 5.079 0 1 0 0 10.157h61.839a5.073 5.073 0 0 0 5.079-5.079zm0 25.576a5.073 5.073 0 0 0 -5.079-5.079h-61.839a5.079 5.079 0 1 0 0 10.157h61.839a5.073 5.073 0 0 0 5.079-5.078zm0 25.621a5.073 5.073 0 0 0 -5.079-5.079h-61.839a5.079 5.079 0 1 0 0 10.157h61.839a5.073 5.073 0 0 0 5.079-5.078zm0 25.621a5.073 5.073 0 0 0 -5.079-5.079h-61.839a5.079 5.079 0 1 0 0 10.157h61.839a5.073 5.073 0 0 0 5.079-5.078zm-178.72 64.754a5.073 5.073 0 0 0 5.079 5.079h75.03a5.079 5.079 0 1 0 0-10.157h-75.03a5.073 5.073 0 0 0 -5.079 5.078zm0-30.473a5.073 5.073 0 0 0 5.079 5.079h121.207a5.079 5.079 0 0 0 0-10.157h-121.207a5.073 5.073 0 0 0 -5.079 5.078zm35.109-29.203a35.106 35.106 0 0 0 34.74-30.064h11.115a5.074 5.074 0 0 0 5.078-5.079 50.993 50.993 0 0 0 -50.933-50.924 5.073 5.073 0 0 0 -5.079 5.078v11.11a35.125 35.125 0 0 0 5.079 69.879zm138.532 48.569h-26.487a5.077 5.077 0 0 0 -5.083 5.078v88.517a5.077 5.077 0 0 0 5.083 5.079h26.487a5.074 5.074 0 0 0 5.079-5.079v-88.519a5.073 5.073 0 0 0 -5.079-5.078zm-94.716 35.64h-26.491a5.077 5.077 0 0 0 -5.079 5.079v52.874a5.077 5.077 0 0 0 5.079 5.079h26.491a5.077 5.077 0 0 0 5.079-5.079v-52.874a5.076 5.076 0 0 0 -5.079-5.079zm47.361-20.769h-26.492a5.073 5.073 0 0 0 -5.079 5.079v73.643a5.074 5.074 0 0 0 5.079 5.079h26.492a5.076 5.076 0 0 0 5.078-5.079v-73.643a5.076 5.076 0 0 0 -5.078-5.079zm-121.207 83.8h26.487a5.073 5.073 0 0 0 5.078-5.079v-38.816a5.073 5.073 0 0 0 -5.078-5.079h-26.487a5.074 5.074 0 0 0 -5.079 5.079v38.817a5.074 5.074 0 0 0 5.079 5.079zm200.141 22.446v-304.683h-231.721v304.684zm5.079-314.84h-241.878a5.075 5.075 0 0 0 -5.078 5.079v314.844a5.075 5.075 0 0 0 5.078 5.078h241.878a5.073 5.073 0 0 0 5.079-5.078v-314.844a5.073 5.073 0 0 0 -5.079-5.079zm-170.113 104.932h35.384a40.883 40.883 0 0 0 -35.384-35.371zm-5.077 30.065a24.944 24.944 0 0 0 24.433-19.907h-24.433a5.074 5.074 0 0 1 -5.079-5.079v-24.4a24.953 24.953 0 0 0 5.079 49.386z" fill="url(#GradientFill_1)" fill-rule="evenodd"></path></svg>