<!-- icon666.com - MILLIONS vector ICONS FREE --><svg id="Layer_1" viewBox="0 0 512 512" xmlns="http://www.w3.org/2000/svg" data-name="Layer 1"><path d="m256 0c141.384 0 256 114.62 256 256s-114.616 256-256 256-256-114.628-256-256 114.624-256 256-256zm5.076 261.522v37.6c10.7-1.886 18.738-9.591 18.738-18.8s-8.036-16.914-18.738-18.8zm-10.157-11.046v-37.6c-10.7 1.887-18.737 9.591-18.737 18.8s8.035 16.919 18.737 18.8zm10.157-37.6c10.7 1.887 18.738 9.591 18.738 18.8a5.079 5.079 0 1 0 10.157 0c0-14.715-12.57-26.94-28.895-29.071v-6.843a5.079 5.079 0 1 0 -10.157 0v6.838c-16.329 2.131-28.9 14.356-28.9 29.071s12.566 26.945 28.9 29.072v38.372c-10.7-1.886-18.737-9.591-18.737-18.8a5.079 5.079 0 1 0 -10.158 0c0 14.715 12.566 26.94 28.9 29.071v6.844a5.079 5.079 0 0 0 10.157 0v-6.844c16.325-2.131 28.895-14.356 28.895-29.071s-12.57-26.945-28.895-29.072v-38.367zm86.835 43.124a91.913 91.913 0 1 0 -91.911 91.909 92.02 92.02 0 0 0 91.911-91.909zm-177-111.312a5.075 5.075 0 0 0 -5.07-5.079h-21.156a5.081 5.081 0 0 0 -5.078 5.079v21.158a5.079 5.079 0 0 0 10.157 0v-8.9l24.436 24.441a5.082 5.082 0 0 0 7.183-7.191l-24.437-24.433h8.9a5.069 5.069 0 0 0 5.07-5.079zm-60.966 129.864a5.083 5.083 0 0 0 7.188-7.188l-6.3-6.289h34.55a5.079 5.079 0 1 0 0-10.158h-34.55l6.3-6.289a5.083 5.083 0 0 0 -7.188-7.188l-14.959 14.965a5.082 5.082 0 0 0 0 7.183zm71.435 56.062a5.082 5.082 0 0 0 -7.183 0l-24.433 24.437v-8.9a5.079 5.079 0 0 0 -10.157 0v21.158a5.076 5.076 0 0 0 5.078 5.079h21.159a5.079 5.079 0 0 0 0-10.157h-8.9l24.437-24.424a5.093 5.093 0 0 0 0-7.192zm74.62 30.913a5.073 5.073 0 0 0 -5.079 5.078v34.554l-6.29-6.294a5.079 5.079 0 0 0 -7.183 7.183l14.96 14.965a5.086 5.086 0 0 0 7.179 0l14.969-14.965a5.081 5.081 0 0 0 -7.188-7.183l-6.29 6.294v-34.554a5.075 5.075 0 0 0 -5.078-5.078zm85.079 5.781a5.077 5.077 0 0 0 5.079 5.079h21.152a5.077 5.077 0 0 0 5.079-5.079v-21.158a5.079 5.079 0 0 0 -10.158 0v8.9l-24.437-24.437a5.081 5.081 0 1 0 -7.179 7.192l24.438 24.424h-8.9a5.082 5.082 0 0 0 -5.079 5.078zm60.971-129.868a5.081 5.081 0 1 0 -7.183 7.188l6.294 6.289h-34.554a5.079 5.079 0 0 0 0 10.158h34.554l-6.294 6.289a5.081 5.081 0 0 0 7.183 7.188l14.964-14.964a5.082 5.082 0 0 0 0-7.183zm-34.74-66.523a5.076 5.076 0 0 0 5.079-5.075v-21.158a5.082 5.082 0 0 0 -5.079-5.079h-21.154a5.079 5.079 0 1 0 0 10.158h8.9l-24.441 24.437a5.081 5.081 0 0 0 7.179 7.191l24.437-24.446v8.9a5.081 5.081 0 0 0 5.079 5.075zm-116.391-25.53a5.079 5.079 0 0 0 10.157 0v-34.554l6.29 6.293a5.081 5.081 0 0 0 7.188-7.182l-14.969-14.964a5.086 5.086 0 0 0 -7.179 0l-14.96 14.964a5.079 5.079 0 0 0 7.183 7.182l6.29-6.293z" fill="#5eac24" fill-rule="evenodd"></path></svg>