<!-- icon666.com - MILLIONS vector ICONS FREE --><svg viewBox="0 0 500 500" xmlns="http://www.w3.org/2000/svg" xmlns:xlink="http://www.w3.org/1999/xlink"><linearGradient id="linear-gradient" gradientUnits="userSpaceOnUse" x1="258.33" x2="285.86" y1="107.42" y2="134.95"><stop offset="0" stop-opacity=".25"></stop><stop offset="1" stop-opacity="0"></stop></linearGradient><linearGradient id="linear-gradient-2" x1="154.69" x2="154.91" xlink:href="#linear-gradient" y1="362.56" y2="362.78"></linearGradient><linearGradient id="linear-gradient-3" x1="201.31" x2="467.74" xlink:href="#linear-gradient" y1="207.26" y2="473.69"></linearGradient><linearGradient id="linear-gradient-4" x1="188.1" x2="274.82" xlink:href="#linear-gradient" y1="232.78" y2="319.5"></linearGradient><g id="Layer_2" data-name="Layer 2"><g id="Layer_1-2" data-name="Layer 1"><g id="_08.Eastern_Caribbean_dollar" data-name="08.Eastern Caribbean dollar"><rect id="Background" fill="#00b0ff" height="500" rx="100" width="500"></rect><g id="Shadow"><path d="m292 128.87-27.54-27.54a5.79 5.79 0 0 1 1.27 4.12v21.48c7.98.16 16.74.83 26.27 1.94z" fill="url(#linear-gradient)"></path><path d="m154.7 362.56a2.13 2.13 0 0 0 .21.22l-.22-.22z" fill="url(#linear-gradient-2)"></path><path d="m500 304v96a100 100 0 0 1 -100 100h-107.87l-136.94-136.94a7.94 7.94 0 0 0 4.13 1.83c27.27 4.43 52.16 7.16 75 7.84v21.82c0 3.75 1.7 5.45 5.11 5.45h21.14c3.41 0 5.11-1.7 5.11-5.45v-22.5c53.18-4.1 81.14-22.5 81.14-61.71v-7.84c0-19.43-4.09-33.75-11.93-42.95s-21.14-17.05-39.21-23.19l-59-19.77q-17.38-6.14-17.38-18.41v-2c0-10.57 5.11-14.32 20.11-14.32h88.3c4.43 0 6.47-2 6.47-5.8v-35.83a4.89 4.89 0 0 0 -.76-2.74z" fill="url(#linear-gradient-3)"></path><path d="m283.07 305.57v-3.07c0-9.55-6.14-13.3-23.87-19.77l-59-19.09c-11.61-3.7-20.79-8.55-27.73-15.26l69.81 69.8h21c14.72 0 19.79-3.41 19.79-12.61z" fill="url(#linear-gradient-4)"></path></g><path id="Icon" d="m295.68 236.36c18.07 6.14 31.37 14 39.21 23.19s11.93 23.52 11.93 42.95v7.84c0 39.21-28 57.61-81.14 61.71v22.5c0 3.75-1.7 5.45-5.11 5.45h-21.14c-3.41 0-5.11-1.7-5.11-5.45v-21.82c-22.84-.68-47.73-3.41-75-7.84q-6.13-1-6.14-7.16v-33.41c0-4.09 2.39-6.14 6.82-6.14h103.3c14.65 0 19.77-3.41 19.77-12.61v-3.07c0-9.55-6.14-13.3-23.87-19.77l-59-19.09c-31-9.89-44.66-28-44.66-67.84v-6.8c0-39.55 25.23-58.3 78.75-61.37v-22.18c0-3.75 1.7-5.45 5.11-5.45h21.14c3.41 0 5.11 1.7 5.11 5.45v21.48c17.39.34 38.18 3.07 62.39 7.5 4.09 1 6.13 2.73 6.13 5.8v35.77c0 3.75-2 5.8-6.47 5.8h-88.3c-15 0-20.11 3.75-20.11 14.32v2q0 12.27 17.38 18.41z" fill="#fff"></path></g></g></g></svg>