<!-- icon666.com - MILLIONS vector ICONS FREE --><svg viewBox="0 0 512 512" xmlns="http://www.w3.org/2000/svg"><path d="m137.847656 28.777344c-22.894531 11.9375-44.085937 27.421875-62.867187 46.203125-48.351563 48.351562-74.980469 112.640625-74.980469 181.019531s26.628906 132.667969 74.980469 181.019531c18.78125 18.78125 39.972656 34.265625 62.867187 46.203125 36.050782 18.800782 76.332032 28.777344 118.152344 28.777344l9.855469-256-9.855469-256c-41.820312 0-82.101562 9.976562-118.152344 28.777344zm0 0" fill="#5ac77e"></path><path d="m383.039062 33.707031c-38.5-22.050781-82.433593-33.707031-127.039062-33.707031v512c8.15625 0 14.769531-6.613281 14.769531-14.769531v-237.308594l117.753907-206.074219c4.046874-7.078125 1.59375-16.089844-5.484376-20.140625zm0 0" fill="#45a362"></path><path d="m177.230469 221.539062h-64c0-8.144531 6.625-14.769531 14.769531-14.769531h49.230469c8.15625 0 14.769531-6.613281 14.769531-14.769531s-6.613281-14.769531-14.769531-14.769531h-24.613281v-19.691407c0-8.15625-6.613282-14.769531-14.769532-14.769531s-14.769531 6.613281-14.769531 14.769531v19.972657c-22.125 2.457031-39.386719 21.257812-39.386719 44.027343v14.769532c0 8.15625 6.613282 14.769531 14.769532 14.769531h64c0 8.140625-6.625 14.769531-14.769532 14.769531h-49.230468c-8.15625 0-14.769532 6.609375-14.769532 14.769532 0 8.15625 6.613282 14.765624 14.769532 14.765624h24.617187v19.695313c0 8.15625 6.613281 14.769531 14.769531 14.769531s14.769532-6.613281 14.769532-14.769531v-19.972656c22.121093-2.457031 39.382812-21.261719 39.382812-44.027344v-14.769531c0-8.15625-6.613281-14.769532-14.769531-14.769532zm0 0" fill="#f2f2fc"></path><path d="m491.074219 154.496094c-13.402344-30.996094-32.546875-58.683594-56.902344-82.296875-3.273437-3.175781-7.835937-4.660157-12.351563-4.019531-4.519531.640624-8.488281 3.332031-10.75 7.296874l-4.914062 8.601563-94.054688 164.59375c-2.613281 4.570313-2.59375 10.1875.050782 14.742187 2.640625 4.554688 7.507812 7.355469 12.769531 7.355469h172.308594c8.15625 0 14.769531-6.613281 14.769531-14.769531 0-35.25-7.039062-69.402344-20.925781-101.503906zm0 0" fill="#979fef"></path><path d="m508.878906 305.996094c-2.796875-3.589844-7.09375-5.6875-11.648437-5.6875h-182.152344c-8.15625 0-14.769531 6.613281-14.769531 14.769531v182.152344c0 9.457031 9.1875 16.636719 18.375 14.324219 31.417968-7.910157 61.046875-21.542969 87.46875-40.078126 12.621094-8.847656 24.511718-18.8125 35.511718-29.8125 34.035157-34.03125 58.203126-76.558593 69.886719-122.980468 1.113281-4.414063.128907-9.097656-2.671875-12.6875zm0 0" fill="#e63950"></path></svg>