<!-- icon666.com - MILLIONS vector ICONS FREE --><svg viewBox="-2 0 485 485.31" xmlns="http://www.w3.org/2000/svg"><path d="m35.066406 456.378906c0-5.445312-4.273437-9.859375-9.542968-9.859375-5.265626 0-9.539063 4.414063-9.539063 9.859375 0 5.445313 4.273437 9.859375 9.539063 9.859375 5.269531 0 9.542968-4.414062 9.542968-9.859375zm0 0" fill="#f8ec7d"></path><path d="m464.324219 23.621094c0-5.445313-4.269531-9.859375-9.539063-9.859375-5.269531 0-9.539062 4.414062-9.539062 9.859375 0 5.445312 4.269531 9.859375 9.539062 9.859375 5.269532 0 9.539063-4.414063 9.539063-9.859375zm0 0" fill="#f8ec7d"></path><path d="m480.15625 10v28.410156c0 5.523438-4.476562 10-10 10h-105.402344c-5.523437 0-10-4.476562-10-10v-28.410156c0-5.523438 4.476563-10 10-10h105.402344c5.523438 0 10 4.476562 10 10zm-15.832031 13.621094c-.171875-5.230469-4.519531-9.34375-9.75-9.230469-5.226563.117187-9.390625 4.417969-9.332031 9.648437.054687 5.230469 4.3125 9.441407 9.542968 9.441407 5.355469-.09375 9.625-4.503907 9.539063-9.859375zm0 0" fill="#e48e66"></path><path d="m398.265625 187.039062-25.949219 20.550782-4.132812-4.121094c-6.828125-6.835938-6.828125-17.914062 0-24.75l24.75-24.738281.3125-5.402344c-.027344-3.4375-.816406-6.828125-2.3125-9.929687-.1875-.398438-.367188-.808594-.539063-1.21875l-.167969.070312h-43.640624v-29.75c0-12.886719 10.445312-23.328125 23.328124-23.328125v-36.011719h90.992188v131.460938c-.003906 6.113281-2.402344 11.980468-6.679688 16.347656l-55.960937 46.332031zm0 0" fill="#f8ec7d"></path><path d="m398.265625 242.550781v106.878907c0 5.269531-4.269531 9.542968-9.539063 9.539062h-124.03125c-5.269531.003906-9.542968-4.269531-9.539062-9.539062v-202.390626c-.003906-5.269531 4.269531-9.539062 9.539062-9.539062h125.53125l.167969-.070312c.171875.410156.351563.820312.539063 1.21875 1.496094 3.101562 2.285156 6.492187 2.3125 9.929687l-.3125 5.402344-24.75 24.738281c-6.828125 6.835938-6.828125 17.914062 0 24.75l4.132812 4.121094 25.949219-20.550782zm-23.851563 9.4375c.003907-26.347656-21.355468-47.707031-47.703124-47.707031-26.347657-.003906-47.707032 21.355469-47.707032 47.707031.003906 26.347657 21.363282 47.703125 47.710938 47.703125 26.34375-.003906 47.695312-21.359375 47.699218-47.703125zm0 0" fill="#e48e66"></path><path d="m326.714844 204.28125c26.34375 0 47.699218 21.359375 47.699218 47.707031 0 26.34375-21.355468 47.699219-47.703124 47.703125-26.34375 0-47.703126-21.355468-47.707032-47.703125 0-26.347656 21.359375-47.710937 47.710938-47.707031zm0 0" fill="#6fe3ff"></path><path d="m82.046875 237.449219v-106.878907c-.003906-5.269531 4.269531-9.542968 9.539063-9.539062h124.027343c5.269531-.003906 9.542969 4.269531 9.542969 9.539062v202.390626c0 5.269531-4.273438 9.539062-9.542969 9.539062h-125.527343l-.171876.070312c-.167968-.410156-.347656-.820312-.539062-1.21875-1.492188-3.101562-2.28125-6.492187-2.308594-9.929687l.308594-5.402344 24.75-24.738281c6.828125-6.835938 6.828125-17.914062 0-24.75l-4.128906-4.121094-25.949219 20.550782zm119.257813-9.4375c-.003907-26.347657-21.359376-47.703125-47.707032-47.703125-26.34375.003906-47.703125 21.359375-47.703125 47.703125 0 26.347656 21.355469 47.707031 47.699219 47.707031 26.351562.003906 47.714844-21.359375 47.710938-47.707031zm0 0" fill="#e48e66"></path><path d="m153.59375 180.308594c26.347656 0 47.710938 21.355468 47.710938 47.703125 0 26.351562-21.359376 47.710937-47.707032 47.707031-26.347656 0-47.707031-21.359375-47.703125-47.707031.003907-26.34375 21.359375-47.699219 47.699219-47.703125zm0 0" fill="#6fe3ff"></path><path d="m89.914062 342.570312.171876-.070312h43.640624v29.75c0 12.886719-10.445312 23.328125-23.332031 23.328125v36.011719h-90.988281v-131.460938c0-6.113281 2.398438-11.980468 6.679688-16.347656l55.960937-46.332031v55.511719l25.949219-20.550782 4.128906 4.121094c6.828125 6.835938 6.828125 17.914062 0 24.75l-24.75 24.738281-.308594 5.402344c.027344 3.4375.816406 6.828125 2.308594 9.929687.191406.398438.371094.808594.539062 1.21875zm0 0" fill="#f8ec7d"></path><path d="m125.554688 441.589844v28.410156c0 5.523438-4.476563 10-10 10h-105.398438c-5.523438 0-10-4.476562-10-10v-28.410156c0-5.523438 4.476562-10 10-10h105.398438c5.523437 0 10 4.476562 10 10zm-90.488282 14.789062c-.175781-5.226562-4.523437-9.339844-9.75-9.226562-5.230468.113281-9.394531 4.417968-9.335937 9.648437.058593 5.230469 4.3125 9.4375 9.542969 9.4375 5.359374-.085937 9.628906-4.5 9.542968-9.859375zm0 0" fill="#e48e66"></path><path d="m87.066406 389.921875c-3.316406 0-6-2.6875-6-6v-11.671875c0-1.183594.347656-2.339844 1.003906-3.328125 4.757813-7.113281 5.625-16.144531 2.3125-24.035156-.140624-.332031-.277343-.648438-.425781-.957031-1.878906-3.902344-2.867187-8.175782-2.890625-12.507813 0-.117187 0-.230469.007813-.34375l.308593-5.402344c.085938-1.46875.707032-2.855469 1.75-3.898437l24.75-24.742188c4.476563-4.496094 4.476563-11.765625 0-16.265625l-.34375-.339843-51.851562 41.054687c-1.675781 1.359375-3.957031 1.714844-5.96875.925781-2.011719-.789062-3.445312-2.597656-3.75-4.734375-.304688-2.140625.5625-4.277343 2.269531-5.601562l56.03125-44.367188c2.386719-1.890625 5.808594-1.695312 7.960938.453125l4.132812 4.121094c9.152344 9.1875 9.15625 24.046875.007813 33.238281l-23.136719 23.125-.167969 2.933594c.050782 2.503906.644532 4.964844 1.734375 7.214844.226563.46875.445313.972656.65625 1.476562 4.609375 10.980469 3.71875 23.496094-2.390625 33.710938v9.941406c0 3.3125-2.6875 6-6 6zm0 0" fill="#e2d574"></path><path d="m372.316406 213.589844c-1.589844 0-3.113281-.628906-4.238281-1.75l-4.128906-4.121094c-9.15625-9.1875-9.160157-24.046875-.011719-33.238281l23.136719-23.125.167969-2.933594c-.050782-2.503906-.640626-4.964844-1.734376-7.214844-.222656-.46875-.445312-.972656-.65625-1.476562-4.605468-10.980469-3.71875-23.496094 2.394532-33.710938v-9.941406c0-3.3125 2.683594-6 6-6 3.3125 0 6 2.6875 6 6v11.671875c0 1.183594-.351563 2.339844-1.007813 3.328125-4.757812 7.113281-5.625 16.144531-2.308593 24.035156.136718.332031.277343.648438.421874.957031 1.882813 3.902344 2.871094 8.175782 2.894532 12.507813 0 .117187 0 .230469-.011719.34375l-.308594 5.402344c-.085937 1.46875-.707031 2.855469-1.75 3.898437l-24.75 24.742188c-4.476562 4.496094-4.476562 11.765625 0 16.265625l.34375.339843 51.847657-41.054687c1.675781-1.359375 3.957031-1.714844 5.96875-.925781 2.011718.785156 3.445312 2.597656 3.75 4.734375.308593 2.140625-.558594 4.277343-2.269532 5.597656l-56.03125 44.371094c-1.058594.839843-2.367187 1.296875-3.71875 1.296875zm0 0" fill="#e2d574"></path><g fill="#6fe3ff"><path d="m320.046875 485.308594c-3.316406 0-6-2.683594-6-6v-37.007813c0-3.316406 2.683594-6 6-6 3.3125 0 6 2.683594 6 6v37.007813c0 3.316406-2.6875 6-6 6zm0 0"></path><path d="m320.046875 423.191406c-3.316406 0-6-2.6875-6-6v-10.101562c0-3.3125 2.683594-6 6-6 3.3125 0 6 2.6875 6 6v10.101562c0 3.3125-2.6875 6-6 6zm0 0"></path><path d="m370.046875 465.308594c-3.316406 0-6-2.683594-6-6v-27.007813c0-3.316406 2.683594-6 6-6 3.3125 0 6 2.683594 6 6v27.007813c0 3.316406-2.6875 6-6 6zm0 0"></path><path d="m370.046875 413.191406c-3.316406 0-6-2.6875-6-6v-20.101562c0-3.3125 2.683594-6 6-6 3.3125 0 6 2.6875 6 6v20.101562c0 3.3125-2.6875 6-6 6zm0 0"></path><path d="m270.046875 465.308594c-3.316406 0-6-2.683594-6-6v-19.007813c0-3.316406 2.683594-6 6-6 3.3125 0 6 2.683594 6 6v19.007813c0 3.316406-2.6875 6-6 6zm0 0"></path><path d="m270.046875 425.191406c-3.316406 0-6-2.6875-6-6v-32.101562c0-3.3125 2.683594-6 6-6 3.3125 0 6 2.6875 6 6v32.101562c0 3.3125-2.6875 6-6 6zm0 0"></path><path d="m150.816406 49.488281c-3.316406 0-6-2.683593-6-6v-37.007812c0-3.3125 2.683594-6 6-6 3.3125 0 6 2.6875 6 6v37.007812c0 3.316407-2.6875 6-6 6zm0 0"></path><path d="m150.816406 84.699219c-3.316406 0-6-2.683594-6-6v-10.097657c0-3.316406 2.683594-6 6-6 3.3125 0 6 2.683594 6 6v10.097657c0 3.316406-2.6875 6-6 6zm0 0"></path><path d="m100.816406 59.488281c-3.316406 0-6-2.683593-6-6v-27.007812c0-3.3125 2.683594-6 6-6 3.3125 0 6 2.6875 6 6v27.007812c0 3.316407-2.6875 6-6 6zm0 0"></path><path d="m100.816406 104.699219c-3.316406 0-6-2.683594-6-6v-20.097657c0-3.316406 2.683594-6 6-6 3.3125 0 6 2.683594 6 6v20.097657c0 3.316406-2.6875 6-6 6zm0 0"></path><path d="m200.816406 51.488281c-3.316406 0-6-2.683593-6-6v-19.007812c0-3.3125 2.683594-6 6-6 3.3125 0 6 2.6875 6 6v19.007812c0 3.316407-2.6875 6-6 6zm0 0"></path><path d="m200.816406 104.699219c-3.316406 0-6-2.683594-6-6v-32.097657c0-3.316406 2.683594-6 6-6 3.3125 0 6 2.683594 6 6v32.097657c0 3.316406-2.6875 6-6 6zm0 0"></path></g><path d="m158.914062 199.738281c-5.074218.007813-9.890624 2.253907-13.15625 6.140625-3.265624 3.886719-4.644531 9.019532-3.769531 14.019532l.089844.1875c.214844 1.371093.40625 2.917968.554687 3.917968h-3.601562c-3.3125 0-6 2.683594-6 6 0 3.3125 2.6875 6 6 6h4.027344c-.007813 1-.007813.859375-.023438 1.171875-.199218 4.429688-3.316406 8.1875-7.628906 9.207031-2.988281.6875-4.988281 3.503907-4.65625 6.554688.335938 3.046875 2.898438 5.363281 5.964844 5.386719.445312.003906.886718-.039063 1.324218-.132813.15625-.035156.308594-.078125.464844-.117187.023438 0 .050782 0 .078125-.007813.703125-.132812 1.421875-.203125 2.140625-.207031 2.242188 0 4.4375.671875 6.296875 1.929687 6.964844 4.703126 15.917969 5.296876 23.4375 1.550782l2.539063-1.269532c2.964844-1.480468 4.167968-5.085937 2.683594-8.050781-1.480469-2.964843-5.085938-4.164062-8.046876-2.683593l-2.535156 1.265624c-3.644531 1.816407-7.984375 1.527344-11.359375-.753906-.671875-.449218-1.371093-.863281-2.089843-1.238281 2.046874-3.285156 3.210937-7.039063 3.378906-10.902344.023437-.488281.023437-.710937.039062-1.710937h2.675782c3.316406 0 6-2.683594 6-6 0-3.3125-2.683594-6-6-6h-3.046876c-.1875-2-.4375-3.8125-.753906-5.832032l-.070312-.296874c-.359375-2.097657.5625-4.210938 2.34375-5.371094.800781-.527344 1.742187-.800782 2.699218-.785156 1.421876.015624 2.773438.597656 3.757813 1.617187.984375 1.023437 1.519531 2.394531 1.484375 3.8125v2.230469c0 3.3125 2.683594 6 6 6 3.3125 0 6-2.6875 6-6v-2.230469c.03125-4.597656-1.773438-9.015625-5.007812-12.28125-3.234376-3.265625-7.636719-5.109375-12.234376-5.121094zm0 0" fill="#2561a1"></path><path d="m334.195312 232h4.167969c3.316407 0 6-2.6875 6-6s-2.683593-6-6-6h-4.167969c-8.03125-.058594-15.753906 3.105469-21.4375 8.78125-2.972656 2.871094-5.277343 6.359375-6.761718 10.21875h-5.132813c-3.3125 0-6 2.6875-6 6s2.6875 6 6 6h3.019531c.019532 0 .046876 1 .101563 2h-3.121094c-3.3125 0-6 2.6875-6 6s2.6875 6 6 6h6.816407c5.59375 9.304688 15.65625 14.996094 26.515624 15h4.167969c3.316407 0 6-2.6875 6-6s-2.683593-6-6-6h-4.167969c-3.847656.066406-7.636718-.976562-10.910156-3h10.058594c3.316406 0 6-2.6875 6-6s-2.683594-6-6-6h-17.265625c-.089844-1-.148437-2-.175781-2h17.441406c3.316406 0 6-2.6875 6-6s-2.683594-6-6-6h-13.699219c.488281-1 1.015625-1.15625 1.589844-1.726562 3.441406-3.421876 8.109375-5.320313 12.960937-5.273438zm0 0" fill="#2561a1"></path></svg>